{
	"asset":{
		"generator":"Khronos glTF Blender I/O v3.6.27",
		"version":"2.0"
	},
	"scene":0,
	"scenes":[
		{
			"name":"Scene",
			"nodes":[
				1
			]
		}
	],
	"nodes":[
		{
			"mesh":0,
			"name":"Curve010",
			"rotation":[
				0.7071069478988647,
				0,
				0,
				0.7071066498756409
			],
			"scale":[
				1.691263198852539,
				1.6912633180618286,
				1.6912633180618286
			],
			"translation":[
				0.01921883597970009,
				0.0820029079914093,
				0.04947724938392639
			]
		},
		{
			"children":[
				0
			],
			"name":"Scene"
		}
	],
	"materials":[
		{
			"name":"Default",
			"pbrMetallicRoughness":{}
		}
	],
	"meshes":[
		{
			"name":"Mesh_0",
			"primitives":[
				{
					"attributes":{
						"POSITION":0,
						"NORMAL":1,
						"TEXCOORD_0":2
					},
					"indices":3,
					"material":0
				}
			]
		}
	],
	"accessors":[
		{
			"bufferView":0,
			"componentType":5126,
			"count":2080,
			"max":[
				0.4418584406375885,
				0.03821447491645813,
				0.04787740111351013
			],
			"min":[
				-0.5292614102363586,
				-0.0382155105471611,
				-0.04319173842668533
			],
			"type":"VEC3"
		},
		{
			"bufferView":1,
			"componentType":5126,
			"count":2080,
			"type":"VEC3"
		},
		{
			"bufferView":2,
			"componentType":5126,
			"count":2080,
			"type":"VEC2"
		},
		{
			"bufferView":3,
			"componentType":5123,
			"count":5364,
			"type":"SCALAR"
		}
	],
	"bufferViews":[
		{
			"buffer":0,
			"byteLength":24960,
			"byteOffset":0,
			"target":34962
		},
		{
			"buffer":0,
			"byteLength":24960,
			"byteOffset":24960,
			"target":34962
		},
		{
			"buffer":0,
			"byteLength":16640,
			"byteOffset":49920,
			"target":34962
		},
		{
			"buffer":0,
			"byteLength":10728,
			"byteOffset":66560,
			"target":34963
		}
	],
	"buffers":[
		{
			"byteLength":77288,
			"uri":"data:application/octet-stream;base64,"
		}
	]
}
